<?xml version="1.0" encoding="utf-8"?>
<!-- Generator: Adobe Illustrator 19.2.0, SVG Export Plug-In . SVG Version: 6.00 Build 0)  -->
<svg version="1.1" id="beanswithtoastFluffyEvenCuter_xA0_Image_1_"
	 xmlns="http://www.w3.org/2000/svg" xmlns:xlink="http://www.w3.org/1999/xlink" x="0px" y="0px" viewBox="0 0 255.1 171.1"
	 style="enable-background:new 0 0 255.1 171.1;" xml:space="preserve">
<style type="text/css">
	.st0{fill:#F3C949;}
	.st1{fill:#FA9D07;}
	.st2{fill:#F3C846;}
	.st3{fill:#E2DAD4;}
	.st4{fill:#E2DAD3;}
	.st5{fill:#FA9E09;}
	.st6{fill:#F3C849;}
	.st7{fill:#FA9D08;}
	.st8{fill:#F3C848;}
	.st9{fill:#FA9E08;}
	.st10{fill:#F3C94B;}
	.st11{fill:#9A4607;}
	.st12{fill:#9B4808;}
	.st13{fill:#FA9E0B;}
	.st14{fill:#FA9E0A;}
	.st15{fill:#5F2B07;}
	.st16{fill:#5F2C08;}
	.st17{fill:#F33838;}
	.st18{fill:#EFC137;}
	.st19{fill:#3C2B1C;}
	.st20{fill:#3D2B1C;}
	.st21{fill:#3D2C1C;}
	.st22{fill:#3B2A1C;}
	.st23{fill:#402E1E;}
</style>
<g>
	<g>
		<path class="st0" d="M55.6,158.9c-6-1.9-12-3.9-17.3-7.4c-8.8-5.8-14-14.1-15.4-24.5c-1.3-9.8-1.2-19.4,4.4-38.6
			c3.1-9.9,3.1-8.2,6-16.9c2.1-6.4,4.8-12.6,7.3-18.9c1.6-0.9,3.6-0.8,5.2-0.3c-0.1,0.2-0.4,0.8-0.5,1c-3.9,9.5-7.9,18.9-11.8,28.4
			c-4.2,10.2-6.2,20.9-7.1,31.9c-0.5,5.9,0.1,11.7,1.4,17.5c1.5,6.5,4.9,11.7,10.1,15.8c4.2,3.2,8.9,5.3,13.8,7.1
			c1.9,0.7,3.7,1.6,5.6,2.4C56.6,157.1,56.1,158,55.6,158.9z"/>
		<path class="st1" d="M229.6,125.2c1.1-2.1,2.7-3.8,4.5-5.2c1.1-0.8,1.2-0.8,1.8,0.5c0.1,0.1,0.2,0.3,0.3,0.4
			c1.2-0.3,2.1-1,2.6-2.1c0.6-1.1,1.2-1.1,1.9-0.1c0.2,0.3,0.4,0.6,0.5,0.9c0.2,0.3,0.3,0.6,0.5,1.1c0.8-0.7,1.5-1.4,2.2-2
			c0.4-0.3,1.1-0.7,1.4-0.6c0.4,0.2,0.6,0.9,0.7,1.4c0.1,1,0,2,0,3.1c1-0.2,1.9-0.4,2.7-0.7c0.8-0.3,1.2,0,1.2,0.8
			c0,0.7-0.1,1.5-0.4,2.2c-0.3,0.8-0.8,1.5-1.2,2.3c1.3,1.1,2.1,2.4,1.7,4.2c-0.9,0.2-1.9,0.5-2.9,0.8c0.3,1,0.7,1.9,1,2.8
			c0.3,0.8,0.3,1.3-1,1.4c-1.1,0-2.3,0.6-3.5,1c0.1,0.7,0.1,1.4,0.2,2.4c-2.9-0.5-5.7-0.9-8.5-1.3c-0.6-0.7-1.2-1.5-1.8-2.2
			c-0.1-0.6-0.1-1.2-0.4-1.7c-1.2-1.9-2.6-3.8-3.8-5.7C229.6,127.7,229.6,126.5,229.6,125.2z"/>
		<path class="st2" d="M203.6,146.4c-2.7,0.1-5.4,0.4-8.1,0.5c-4.1,0.1-7.8,1.2-10.9,4c-0.6,0.6-1.3,1.1-1.9,1.6
			c-5.3,4.6-11.6,6.9-18.3,8.5c-1.3,0.3-2.6,1-3.9,1.5c-0.4-1.3-0.8-2.5-1.3-3.8c2.7-1,5.4-2.1,8.1-3c6-2,11.7-4.8,16.8-8.5
			c2.3-1.7,4.2-3.8,4.8-6.7c0.2-1.1,0.4-2.2,0.5-3.3c0.3-2.4,0.5-4.8,0.8-7.1c1.4-0.6,2.7-1.2,4.1-1.8c-0.1,1.7-0.3,3.4-0.5,5.3
			c2.7,0.2,5.3,0.1,7.8-0.4c-0.1,1.4-0.2,2.7-0.3,4.1c-0.4-0.1-0.8-0.1-1.2-0.2c-2.5-0.2-3.9,1.1-3.7,3.5c0.1,0.6,0.2,1.2,0.2,1.8
			c0,0.9,0.4,1.2,1.3,1.1c1.5-0.1,3.4-0.2,4.9-0.4C203.3,144.3,203.4,145.3,203.6,146.4z"/>
		<path class="st3" d="M172.4,45.6c5.6-0.4,11.1,0.9,16.6,1.8c4.9,0.8,9.9,1.5,14.8,2.5c3.8,0.8,2.4,0.5,6.2,1.6
			c1.1,0.3,4.9,1.1,6.5,1.9c2,1,3.1,1.9,3.1,3c-0.4,2-0.8,2.1-2.8,1.4c-3.3-1-6.6-2.3-10.1-3.1c-4.1-0.9-8.3-1.5-12.4-2.2
			c-3.1-0.5-6.1-1.1-9.2-1.5c-2.9-0.4-3.5-0.5-6.4-0.8c-0.4,0-2.7-0.3-3.8-0.2c-2.4-0.2-2.8-0.1-4.6,0c-2.6,0.3-5.2,0.4-7.7,0.9
			c-1.8,0.3-3.5,1.1-5.3,1.8c-1.3,0.5-2,0.1-2-1.3c0-1.6,0.8-2.9,2.5-3.4c3.3-0.9,6.7-1.5,10-2.3C169.3,45.6,170.9,45.6,172.4,45.6z
			"/>
		<path class="st3" d="M166.6,34.6c1.8-0.3,3.7-0.5,5.5-0.8c1.2-0.2,2.4-0.4,3.7-0.4c8.5-0.1,17-0.4,25.5-0.2
			c4.9,0.1,6.9,0.2,11.8,0.9c1.2,0.2,4.5,2.1,4.1,3.7c-0.2,1.1-0.9,1.3-1.9,1.1c-5.9-0.9-11.7-1.8-17.7-1.5c-4.5,0.2-9,0.1-13.4,0
			c-2,0-4-0.3-6-0.2c-2.8,0.2-5.6,0.6-8.4,1c-0.4,0.1-0.8,0.2-1.5,0.4c-1.6,0.3-2.7,0.7-4.2,0.9c-3.2,0.8-6.4,1.5-9,3.8
			c-0.9,0.8-1.8,0.4-2-0.8c-0.1-0.8-0.3-1.3,0-2.3c1.3-2.1,2.2-2,3.1-2.4c0.8-0.4,2.9-1.7,6.3-2.5C163.9,35.1,165.2,34.8,166.6,34.6
			z"/>
		<path class="st4" d="M161.1,22.4c2.5-1,3.1-1,4.7-1.6c2.4-1,5-1.6,7.5-2.4c3.7-1.1,7.3-2.2,11-3.1c1.5-0.4,3.1-0.3,4.7-0.5
			c3-0.3,6-0.7,9-0.9c3.1-0.2,3.2-0.2,6.2-0.1c1.3,0,4.3,0.5,4.3,2.5c0,1.1-0.6,1.6-1.5,1.6c-1.4,0-2.9-0.3-4.3-0.2
			c-3.6,0.2-7.2,0.7-10.8,0.9c-6.4,0.2-12.5,2.4-18.7,3.7c-3.1,0.7-3.5,1-6.5,2.1c-0.4,0.1-2.9,1.4-3.7,1.7c-1.1,0.5-1.6,1-3.1,1.5
			c-0.1,0.1-1.1,0.5-1.6,0.7c-1,0.5-1.1,0.6-1.8,1c-2.2,1.3-3.5,2.1-5.7,3.5c-0.9,0.5-2.3,0.3-2.5-0.6c-0.4-1.5,0.3-2.4,1.6-3.2
			c2.5-1.6,4.9-3.2,7.4-4.8C158.8,23.7,159,23.4,161.1,22.4z"/>
		<path class="st5" d="M99.6,15.2c1.4-0.6,2.8-1.1,4.2-1.7c1.4-0.6,1.7-0.5,2.2,0.9c0.7,1.8,1.3,1.9,2.8,0.8
			c0.8-0.6,1.6-1.3,2.3-1.9c0.7-0.5,1.2-0.5,1.6,0.4c1.3,2.7,1.8,2.8,3.7,0.5c0.7-0.8,1.4-1.1,2.3-0.5c1.1,0.7,2.1,1.6,3.2,2.3
			c0.2,0.1,0.4,0.2,0.6,0.3c0.6,1,1.2,1.9,1.8,2.9c-2.2,1.8-4.3,3.6-6.5,5.4c-0.7,0.6-1.1,0.2-1.6-0.4c-0.7-1-1.4-2-2.2-3.1
			c-1.7,1.5-3.2,3-4.8,4.4c-2.2,2-4,1.4-4.5-1.6c-0.2-1.2-0.3-2.5-0.5-4c-0.5,0.4-0.9,0.7-1.3,1c-1.6,1-3.2,2.2-4.9,3
			c-1.2,0.6-1.7,0.2-2.1-1.1c-0.5-2.1-0.2-4.1,0.5-6.1C97.4,16.3,98.5,15.8,99.6,15.2z"/>
		<path class="st6" d="M140.4,163.9c-12.8,0-25.6,0-38.5,0c-4.1,0-8.2,0.1-12.3,0c-4.3-0.1-8.5-0.5-12.8-0.8
			c-1.9-0.1-3.7-0.2-5.5,0.7c0.1-1.6,0.1-3.2,0.2-4.8c0.7,0.1,1.4,0.1,2.1,0.2c9.7,1.1,19.4,1.8,29.3,1.5
			c12.1-0.4,24.1-0.2,36.2-0.3c0.6,0,1.2,0.1,1.8,0.2C140.7,161.7,140.5,162.8,140.4,163.9z"/>
		<path class="st3" d="M45.4,52.6c-2.1-0.1-2.1-0.1-4.8,0c-0.4-0.1-0.8-0.2-1.1-0.2c-8-0.2-15.7,1.4-23.3,4.1c-2.7,1-5,2.6-7.2,4.4
			c-0.7,0.6-2.2,0.7-3.3,0.4c-1.1-1.4-0.9-1.9-0.4-3c0.9-1.3,2-2,2.5-2.3c1.5-0.7,3.1-1.4,4.5-2.2c2.8-1.5,5.8-2.2,8.8-3
			c4.7-1.3,9.6-2,14.4-2.4c2.2-0.2,4.5-0.2,6.7-0.3c0.5,0,1.1-0.1,1.6-0.1c1.9,0,2.8,0,4.1,0.1c2.2,0.3,4.4,0.7,6.6,1
			c0.7,0.1,1.5,0.2,2.2,0.5c0.9,0.4,1.8,2.4,1.5,3.1c-0.5,1.1-1.6,0.8-2.4,0.6C52.4,52.5,48.9,52.6,45.4,52.6z"/>
		<path class="st3" d="M47.3,40.8c-4.3-1.3-8.7-1.8-13.2-1.2c-3,0.4-4.1-0.1-7.1,0.3c-3.2,0.4-8.3,1.6-11.4,2
			c-1.3,0.2-2.5,0.2-3.7-1c0,0-1.1-1.4,1.1-2.4c3.6-1.7,9-2.7,13-3c3.1-0.2,6.2-0.5,9.3-0.4c4.2,0.1,8.3,0.4,12.4,1.6
			c0.9,0.3,1.9,0.2,2.8,0.3c1.4,0.3,2.2,0.7,3.5,1.1c0.6,0.3,1.4,0.6,1.8,0.8c1.3,0.4,2,0.6,3.4,0.9c1.1,0.3,2.2,0.7,2.9,2.6
			c0.1,0.2,0,0.4,0,0.6c0,1.9-0.3,2-2.1,1.4c-2.6-0.9-5.3-1.5-8-2.3C50.4,41.7,48.8,41.3,47.3,40.8z"/>
		<path class="st3" d="M55.2,29.5c-2.2-1.2-4.3-2.8-6.6-3.7c-5.2-1.9-10.5-3.6-15.9-5c-4.5-1.1-7.6-1.7-12.2-0.8
			c-1.3,0.3-3.4,0.2-3.6-0.8c-0.1-0.8-0.7-1.7,1.7-2.6C20.5,16,21,16,22.1,16c1.9,0,3.9-0.2,5.8,0c2.6,0.3,5.2,0.8,7.7,1.5
			c4.4,1.2,8.8,2.6,13.1,4.1c2.8,1,5.4,2.4,8.1,3.7c0.4,0.2,1.2,0.6,1.7,0.8c1,0.6,1.4,0.7,2.4,1.3c0.4,0.3,0.6,0.5,1.3,1.3
			c1.4,1,2.3,1.8,3.8,2.6c1.1,0.7,1.6,1.6,1.4,2.9c-0.1,1.2-0.8,1.7-1.8,1.1c-0.9-0.5-1.8-1.1-2.6-1.7c-1.7-0.9-1.9-1.1-4.1-2
			C57.3,30.5,56.5,30.5,55.2,29.5z"/>
		<path class="st7" d="M194.3,128.4c-1.4,0.6-2.7,1.2-4.1,1.8c-1.1,0-2.2,0-3.4-0.1c-2.5-0.2-4.8-1-6.7-2.8c-2.8-2.7-2-6.6,1.6-8
			c2.5-1,5-2,7.4-3c0.6-0.2,1.1-0.7,1.6-1c1.3-0.9,2.6-1.7,4-2.6c0.2,3.6,0.5,7.2,0.5,10.8C195.3,125.1,194.7,126.7,194.3,128.4z"/>
		<path class="st1" d="M188.8,86.8c1.3,4.4,1.2,3.3,2.5,7.7c0.1,0.4,1.5,6.7,1.5,7.2c-1,0.7-2,1.5-3.1,2.2c-0.1,0-1.1,0.4-1.1,0.4
			c-4.1,2-7.1,0.9-10.7-1.6c-3.1-2.1-2.9-6.1,0.3-8c2.4-1.5,4.9-3,7.3-4.5c0.6-0.5,1.3-1,1.9-1.6C187.8,88.2,188.1,87.9,188.8,86.8z
			"/>
		<path class="st0" d="M61.6,28c-0.9-0.9-2.7-1.6-3.7-2.2c3-4.1,5.9-8.3,9-12.3c2.9-3.8,6.4-7,10.3-9.8c2-1.4,4-1.7,6.2-1
			c2.6,0.8,4.8,2.2,6.8,4c0.4,0.3,0.7,0.7,1.1,1.1c2.6,2.6,5.1,5.4,8.3,7.4c-1.1,0.6-2.1,1.1-3.2,1.5c-2.1-1.9-4.4-3.8-6.6-5.6
			C88,9.5,86.2,8,84.2,6.6c-1.9-1.3-4-1-5.8,0.5c-0.8,0.6-1.6,1.3-2.3,2.1C71.1,15.3,66.7,21.9,61.6,28z"/>
		<path class="st8" d="M124.2,19.3c-0.6-1-1.2-1.9-1.8-2.9c3.3-2.9,6.6-5.8,10-8.7c1.8-1.5,3.6-3,5.5-4.3c2-1.4,4.2-2.2,6.7-1.7
			c0.9,0.2,1.8,0.5,2.5,1c2.6,1.6,4.8,3.7,6.4,6.3c2.6,4.2,5.2,9.2,7.6,13.4c-1.8,1.1-2.1,1.3-3.7,2c-0.9-1.9-1.5-3.7-2.5-5.5
			c-2.3-4.3-4.8-8.4-8.3-11.8c-2.7-2.8-4.7-2.9-7.7-0.5c-2.6,2.1-5,4.3-7.5,6.5C128.9,15.1,126.6,17.2,124.2,19.3z"/>
		<path class="st9" d="M181.4,67.5c1.4,3.7,3.4,7.8,4.8,12.6c0,1.5-0.9,1.5-2.6,2c-1,0.2-1.9,0.6-2.9,0.7c-2.5,0.2-4.9,0.3-7.4,0.4
			c-2.4,0-4-1.9-3.8-4.2c0.2-2.4,1.2-4.3,3.3-5.5c2.1-1.3,4.2-2.6,6.3-3.9C179.8,68.8,180.6,68.1,181.4,67.5z"/>
		<path class="st1" d="M215,129.6c2.5-1.4,5.2-2.5,8.2-2.3c0.7,1.1,1.5,2.2,2.2,3.3c0,0.3,0,0.5,0.1,0.8c0.4,1.8,0.9,3.6,1.3,5.4
			c0,1.5,0,3.1-0.1,4.6c-2.4,1.3-4.7,2.8-7.7,2.2c-0.2-0.7-0.3-1.4-0.5-2.2c-0.2-1.7-0.9-3-1.9-4.3c-0.7-0.8-1.3-1.7-1.9-2.6
			C214.8,132.8,214.9,131.2,215,129.6z"/>
		<path class="st1" d="M201.3,137.3c0.1-1.4,0.2-2.7,0.3-4.1c0.8-0.5,1.6-1.3,2.6-1.5c2.3-0.5,4.7-0.7,7-1c0.4,1.4,0.7,2.7,1.1,4.1
			c-0.2,2-0.3,4.1-0.5,6.1c-0.2,0.4-0.4,0.8-0.5,1.1c-0.4,1.2-0.9,2.4-1.3,3.6c-2.1,0.9-4.1,1.7-6.4,0.8c-0.3-1.1-0.5-2.2-0.8-3.3
			C202.3,141.3,201.8,139.3,201.3,137.3z"/>
		<path class="st5" d="M140.4,163.9c0.2-1.1,0.3-2.2,0.5-3.3c1.5-0.1,2.8,0,4.3,1c1.6,1.1,3.6,1.7,5.5,2.5c0.6,0.2,1.5,0.2,1.9-0.1
			c1.8-1.4,3.5-3,5.2-4.4c0.4-0.3,1-0.5,1.5-0.8c0.4,1.3,0.8,2.5,1.3,3.8c-1.3,3.2-3.9,5.1-6.9,6.5c-1.8,0.9-3.9,0.5-5.6-0.3
			C145.4,167.4,143,165.6,140.4,163.9z"/>
		<path class="st5" d="M71.5,159c-0.1,1.6-0.1,3.2-0.2,4.8c-3.1,3.6-7.8,4.9-12.2,3.3c-0.7-0.2-1.3-0.8-1.7-1.3
			c-1.4-2.1-2.1-4.4-1.8-6.9c0.5-0.9,1-1.7,1.5-2.6c0.3,0.2,0.7,0.4,0.9,0.7c0.9,1.2,2,2.4,2.7,3.8c0.8,1.5,2,1.8,3.5,1.5
			c0.7-0.2,1.5-0.5,2.1-1c0.9-0.6,1.8-1.3,2.7-2C69.8,158.7,70.6,158.5,71.5,159z"/>
		<path class="st0" d="M181.4,67.5c-0.7,0.8-1.5,1.5-2.3,2.1c-2-4.2-3.9-8.7-5.9-12.9c-1-2.2-2-4.6-3-6.8c2.1-0.1,2.7-0.3,4.4,0
			c2,5.2,3.6,6.7,5.6,12.6C180.4,63,181.3,66.9,181.4,67.5z"/>
		<path class="st8" d="M189.6,103.9c1-0.7,2-1.5,3.1-2.2c0.3,0.4,0.8,1.5,1,3.1c0.5,3.2,0.7,4.6,1.1,7.8c-1.3,0.9-2.6,1.7-4,2.6
			c0-1.3,0-2.6,0-3.9C190.8,108.8,190.5,106.2,189.6,103.9z"/>
		<path class="st10" d="M159.7,30c-0.2-0.4-0.6-1.1-0.7-2c1.4-0.6,2.5-1.5,4-2c1.1,2.7,2.6,5.8,3.7,8.5c-1.4,0.2-2.9,0.5-4.3,0.7
			C161.1,33.1,160.8,32.1,159.7,30z"/>
		<path class="st0" d="M55.2,29.5c1.4,1,3.1,1.4,4.5,2.4c-1.5,1.9-3.3,4.7-4.8,6.6c-1.3-0.6-3.1-1.2-4.4-1.5
			C52,34.5,53.6,32,55.2,29.5z"/>
		<path class="st0" d="M164,39.5c1.5-0.2,3-0.8,4.5-1c1.3,2.2,2.6,4.9,3.9,7.1c-1.5,0-3.1,0-4.6,0C166.6,43.6,165.3,41.5,164,39.5z"
			/>
		<path class="st10" d="M47.3,40.8c1.6,0.5,3.1,0.4,4.7,1.3c-1.8,1.6-3.2,3.6-4.1,5.9c-1.4-0.1-2.8,0-4.3-0.1
			C44.9,45.6,46.1,43.1,47.3,40.8z"/>
		<path class="st8" d="M226.7,141.4c0-1.5,0-3.1,0.1-4.6c0.4,0,1,0,1.4,0c1.9-0.1,3.4-0.3,5.3-0.5c0.6,0.7,1.6,1.5,2.2,2.2
			C232.7,139.5,229.6,140.4,226.7,141.4z"/>
		<path class="st10" d="M183.6,82.1c1.7-0.5,2.5-0.9,2.5-2.4c0.9,2.4,0.9,2.4,1.9,4.8c0.2,0.4,0.6,1.5,0.7,2.3
			c-0.5,1.1-0.9,1.4-1.4,1.9c-0.6,0.6-1,1-1.9,1.5c0.2-0.6,0.1-1.1-0.1-1.9C184.7,86,184.2,84.4,183.6,82.1z"/>
		<path class="st10" d="M210,145.6c0.4-1.2,0.8-2.4,1.3-3.6c0.1-0.4,0.3-0.8,0.5-1.1c2.3,0.2,4.6,0.3,6.9,0.5
			c0.2,0.7,0.3,1.4,0.5,2.2C216.1,144.2,213,144.9,210,145.6z"/>
		<path class="st8" d="M225.4,130.6c-0.7-1.1-1.5-2.2-2.2-3.3c1.8-0.6,3.6-1.1,5.5-1.7c0.3-0.1,0.7-0.5,1-0.6c0,1.2-0.1,2.8-0.2,4.2
			C227.9,129.7,226.8,130,225.4,130.6z"/>
		<path class="st10" d="M212.2,134.8c-0.4-1.4-0.7-2.7-1.1-4.1c1.3-0.4,2.6-0.8,3.9-1.1c-0.1,1.6-0.2,3.2-0.3,4.8
			C213.9,134.5,213.1,134.7,212.2,134.8z"/>
		<path class="st11" d="M139.3,73.6c0.7,0.7,0.8,0.8,1.3,3.1c0.3,3.6,1,5.9-1.5,10c-0.6,1-1.6,2.8-2,3.5c-2,3.3-2.2,3.5-4,6.2
			c-1.5,2.6-1,4.3-0.9,7.1c1.3,8.9,2.2,16.1,5,24.7c0.5,1.6,0.6,3.4,0.6,5c-0.1,1.7-0.9,2.3-2.6,2.3c-1.6,0-3.3-0.3-4.9-0.4
			c-8.6-1-17.2-2-25.8-2.9c-2.7-0.3-5.5,0-8.3-0.3c-6.6-0.8-12.8,1-19.1,2.7c-1.8,0.5-3.6,0.9-5.4,1.2s-3.3-0.4-4.3-2
			c-0.3-0.6-0.5-1.3-0.5-2c0.2-4.2,1-8.4,2.2-12.5c1.2-4.2,1-8.5,1.2-12.7c0.2-3.9,0.4-7.8,0.7-11.7c0.1-1.6-0.5-2.8-1.4-3.9
			c-3.1-3.9-4.7-8.4-4.5-13.5c0.1-2.3,0.6-4.4,1.9-6.3c0.8,0.2,1.5,0.5,2.3,0.7c-0.4,1.2-0.8,2.4-1,3.7c-0.3,1.4-0.6,2.9-0.4,4.3
			c0.4,3.4,2.5,6.1,4.4,8.8c1.1,1.6,1.9,3.2,1.7,5.2c-0.2,2.6-0.5,5.1-0.7,7.7c-0.1,0.2,0,5.1,0,5.4c-0.1,4.2,0.6,3.2-0.4,7.9
			c-0.6,2.7-1.2,5.3-1.7,8c-0.4,2.2-0.9,4.4-1.2,6.6c-0.2,1.4,0.8,2.4,2.2,2.2c2-0.3,4-0.6,5.9-1.4c3.5-1.4,6.9-2.8,10.7-2.7
			c1.8-0.4,2.6-0.3,3.9-0.3c2.9,0,5.7-0.1,8.6,0.2c3.7,0.3,7.4,0.9,11.1,1.3c3,0.4,5.9,0.7,8.9,1.1c3.2,0.4,6.4,0.9,9.6,1.3
			c0.9,0.1,1.6-0.3,1.5-1.4c-0.1-1.1-0.1-2.1-0.4-3.2c-0.5-2-1.3-3.9-1.7-5.8c-1.7-7.9-2.8-15.8-2.7-23.9c0-1.8,0.6-3.1,1.8-4.2
			c2.6-2.5,4.5-5.5,5.9-8.8c0.7-1.7,1.7-3.4,1.3-5.4c-0.3-1.6-0.7-3.3-1.1-4.8C136.6,73.5,138,73.6,139.3,73.6z"/>
		<path class="st12" d="M77.8,59.9c4.2-1,8.4-2.3,12.7-3c6.9-1.1,13.9-1.6,20.8-0.7c4.8,0.6,9.4,2.4,14,3.8c2.2,0.7,4.4,1.8,6.6,2.7
			c-0.9,1.3-0.9,2.7-1.1,4.3c-0.2-0.1-0.5-0.2-0.7-0.3c-2.6-1.8-5-3.7-8.2-4.4c-2.6-0.6-5.1-1.4-7.7-2.1c-4.2-1-8.3-2.2-12.8-1.9
			c-5.5,0.4-10.9,1.4-16.2,2.7c-2.5,0.6-5,1.6-7.4,2.4C77.8,62.2,77.8,61,77.8,59.9z"/>
		<path class="st13" d="M77.8,59.9c0,1.2,0,2.3,0,3.5c-0.3,3.5-2.2,5.9-4.9,7.9c-1.1,0.8-2.4,1.3-3.7,0.8c-0.8-0.2-1.3-0.3-2.2-0.9
			c-0.4-0.5-0.7-1.1-1.1-1.6c-1.2-1.6-1.6-3.3-0.8-5.2c0.5-1.4,1.2-1.6,2.3-0.6c0.7,0.6,1.4,1.4,2,2.1c1.2,1.3,2.4,1.3,3.5-0.1
			c1.8-2.3,0.3-6-2.7-6.6c-1.7-0.3-3.4-0.6-5-1c-0.6-0.2-1.2-0.6-1.8-0.9c0.4-0.7,0.8-1.4,1.3-2c0.3-0.3,0.8-0.5,1.3-0.5
			c6.3-0.3,8.6-0.1,11.7,4.9C77.6,59.6,77.7,59.7,77.8,59.9z"/>
		<path class="st14" d="M130.8,66.9c0.1-1.7,0-2.2,0.7-3.6c1-1.7,2.5-3.5,3.9-4.6c2.5-2,5.5-2.5,8.7-1.6c1.2,0.3,1.6,1.4,1.6,2.5
			c0,0.3-0.6,0.9-1,1c-2.2,0.7-4.5,1.1-6.7,1.9c-2,0.7-2.9,2.7-2.4,4.6c0.5,2.1,2.9,3.3,4.6,1.3c0.2-0.2,0.5-0.5,0.8-0.4
			c0.4,0,0.7,1.2,0.5,1.7c-0.2,1.5-0.5,2.4-2.2,3.9c-1.1,0.3-2,0.6-4,0.1C132.3,72.3,130.4,70.3,130.8,66.9z"/>
		<path class="st15" d="M79.6,44.9c-1.9-0.2-2.1-0.3-3.3-0.8c-1.8-1-3-2.5-2.9-5.3c0.8-3.1,3.3-5.9,7.5-4.2c2.1,0.9,3.8,2,4.2,4.4
			C85.6,42.4,83.5,45,79.6,44.9z"/>
		<path class="st16" d="M135.4,34.9c0.5,0,1.4,0,2.2,0.4c1.5,0.8,2.8,2,2.7,4.5c-0.1,2.9-1.5,4.6-4.4,4.8c-1.4,0.1-3-0.1-4.3-0.6
			c-2.3-0.8-3-2.5-2.5-5.3c0.9-2.1,0.9-2.1,2.8-3.2c0.9-0.3,1.4-0.5,2.1-0.6C134.4,34.8,135.1,34.8,135.4,34.9z"/>
		<path class="st17" d="M103.9,43.1c2.3,0,2.9,0.1,4.9,0.2c1,0,1.4,0.6,1.8,1.3c0.4,0.8,0.1,1.4-0.5,1.9c-0.7,0.5-1,1.4-2.3,0.9
			c-0.4-0.2-1.5,0.7-1.7,1.3c-0.3,0.8-0.9,1-1.5,1.1c-1.3,0.2-2.9-0.3-3.6-1.8c-0.2-0.4-0.7-0.8-1.1-0.8c-1.1-0.2-2-1.1-2-2.3
			c0-1,0.8-1.7,2-1.8c0.1,0,0.2,0,0.4,0c0.9,0,1.8,0,2.6,0C103.2,43.1,103.9,43.1,103.9,43.1z"/>
		<path class="st18" d="M130.8,66.9c-0.3,3.4,1.9,5.4,4.7,6.8c0.4,1.5,1.2,3.3,1.5,4.8c0.4,2-0.6,3.7-1.3,5.4
			c-1.4,3.3-3.2,6.3-5.9,8.8c-1.2,1.1-2.1,2.5-2.2,4.2c-0.1,8.1,1,16,2.7,23.9c0.4,2,1.2,3.9,1.7,5.8c0.3,1,0.3,2.4,0.4,3.5
			c0.1,1-1,1.4-1.9,1.2c-3.2-0.4-6.6-1.1-9.8-1.5c-3-0.4-5.7-0.7-8.7-1.1c-3.7-0.5-7.3-0.9-11-1.2c-2.8-0.2-5.8,0-8.7,0
			c-1.3,0-2.5,0-4.7,0.2c-4.9,0.7-6.7,1.4-10.2,2.8c-1.8,0.7-3.6,1-5.6,1.3c-1.4,0.2-2.2-1.1-2-2.6c0.3-2.2,0.7-4.4,1.2-6.6
			c0.5-2.7,1.1-5.4,1.7-8c0.2-0.9,0.6-3.6,0.6-4.5c-0.2-4.2-0.1-6.3-0.2-9.8c0.2-2.6,0.5-4,0.7-6.6c0.2-2-0.7-3.3-1.8-4.9
			c-1.8-2.7-3.9-5.7-4.3-9.1c-0.2-1.4-0.1-2.1,0.2-3.5c0.2-1.2,0.7-2.9,1.2-4.2c1.3,0.5,2.5,0,3.6-0.8c2.6-2,4.6-4.5,4.9-7.9
			c2.5-0.8,4.9-1.8,7.4-2.4c5.3-1.3,10.7-2.2,16.2-2.7c4.5-0.3,8.6,0.8,12.8,1.9c2.6,0.6,5.1,1.5,7.7,2.1c3.2,0.7,3.4,1.1,7.7,3.6
			C130.6,66.5,130.6,66.5,130.8,66.9z M82.9,115.9c0.3-0.2,1-0.6,1.5-1.1c3.3-3.1,6.5-6.3,9.7-9.4c6.4-6.1,12.8-12.2,19.3-18.3
			c2.2-2,4.4-3.9,6.7-5.8c0.9-0.8,1-1.6,0.4-2.6c-0.6-0.9-1.5-1.2-2.5-0.5c-1.8,1.2-3.7,2.3-5.2,3.8c-4.6,4.2-9.2,8.5-13.7,12.9
			c-5,4.9-10.1,9.8-15,14.9c-1.2,1.2-2,3-2.7,4.6C80.8,115.2,81.4,115.9,82.9,115.9z M81.2,103.1c0.5,0.8,0.9,1.7,1.6,2.1
			c0.3,0.2,1.3-0.4,1.8-0.9c0.9-0.8,1.7-1.7,2.5-2.6c5.6-6.2,11.3-12.4,17.7-17.9c2.2-2.2,2.8-2.5,4.2-3.9c0.9-0.9,0.9-1.7,0-2.6
			c-0.9-1-1.7-1.1-2.9-0.3c-0.6,0.4-1.1,0.8-1.6,1.2c-8,6.7-15.1,14.3-21.8,22.3C82.1,101.2,81.8,102.1,81.2,103.1z M93.1,113.1
			c0.4,0.6,0.6,1.2,0.9,1.2c0.7,0.2,1.6,0.3,2.1,0c1.1-0.6,1.9-1.5,2.9-2.3c6.9-5.7,10.9-9.6,18-15.9c0.3-0.3,2.2-1.8,2.5-2.9
			c0.5-0.8,0.3-1.9,0-2.5c-0.2-0.4-1.2-0.6-1.7-0.4c-1,0.3-1.9,0.8-2.7,1.5c-6.8,6.1-13.6,12.2-20.3,18.3
			C94,110.8,93.6,112.1,93.1,113.1z M81.9,92.1c0.3,0.4,0.5,1.2,1,1.4c0.3,0.2,1.2-0.2,1.5-0.6c1.1-1.1,2-2.4,3.1-3.5
			c3.2-3.5,6.5-7,9.8-10.6c1.1-1.2,0.9-2.9-0.5-3.8c-1-0.6-1.8-0.1-2.5,0.5c-4.8,3.8-8.7,8.5-11.6,13.8C82.3,90.2,82.2,91,81.9,92.1
			z M105.8,112.6c0.3,0.5,0.4,1.2,0.9,1.5c0.6,0.4,1.3,0.3,2-0.2c3.5-3.2,6.6-5.9,10.1-9.1c0.7-0.6,1.3-1.8,0.8-2.6
			c-0.5-0.9-1.4-1.1-2.3-0.8c-0.6,0.2-1.1,0.6-1.6,1c-2.7,2.3-5.5,4.7-8.2,7C106.5,110.2,106,111.2,105.8,112.6z M80.9,84.4
			c1.9-1.8,3.8-3.6,5.5-5.4c0.8-0.9,0.4-2.9-0.5-3.7c-0.8-0.7-1.8-0.6-2.9,0.7c-1.1,1.3-1.9,2.8-2.8,4.2
			C79.1,81.7,79.7,82.9,80.9,84.4z M116.3,114.4c0,1.6,0.9,2.2,2.3,1.4c1.3-0.7,2.2-1.8,2.4-3.3c0.1-0.6-0.4-1.4-0.8-2
			c-0.4-0.2-0.7-0.3-1-0.2C118,110.8,116.3,113.1,116.3,114.4z"/>
		<path class="st19" d="M82.5,116.1c-2.3,0.3-1.4-1.8-0.9-2.9c0.8-1.6,1.2-2.1,2.4-3.4c4.9-5,9.9-10,15-14.9
			c4.5-4.4,9-8.7,13.7-12.9c2-1.8,3.4-2.6,5.2-3.8c1-0.7,1.9-0.5,2.5,0.4c0.7,1,0.6,2-0.4,2.8c-2.2,1.9-4.5,3.9-6.7,5.9
			c-6.5,6.1-12.8,12.1-19.2,18.2c-3.3,3.1-2.9,4.2-7.7,8.3c-0.5,0.4-0.8,0.8-2.1,1.6C84,115.5,83.7,115.9,82.5,116.1z"/>
		<path class="st19" d="M81.2,103.1c0-1.4,0.9-1.9,1.5-2.6c6.7-8,12.7-14.7,21.8-22.3c0.5-0.4,1.1-0.8,1.6-1.2
			c1.2-0.8,1.9-0.7,2.9,0.3c0.9,0.9,0.9,1.7,0,2.6c-1.4,1.3-2.8,2.6-4.2,3.9c-6.4,5.5-12.1,11.7-17.7,17.9c-0.8,0.9-1.6,1.8-2.5,2.6
			c-0.5,0.5-1.5,1.1-1.8,0.9C82.1,104.8,81.2,103.7,81.2,103.1z"/>
		<path class="st20" d="M93.1,113.1c0.4-1.6,0.9-2.2,1.7-3c6.7-6.2,13.4-12.5,20.3-18.3c0.8-0.7,1.7-1.2,2.7-1.5
			c0.5-0.2,1.5,0,1.7,0.4c0.3,0.6,0.4,1.6,0,2.5c-0.3,0.9-2.5,3.3-4.7,5.2c-7.4,6-8.2,7.6-15.8,13.6c-1,0.8-1.8,1.7-2.9,2.3
			c-0.5,0.3-1.4,0.2-2.1,0C93.6,114.3,93.4,113.7,93.1,113.1z"/>
		<path class="st21" d="M81.9,92.1c0.1-1.2,0.4-2.1,0.8-2.8c2.9-5.3,6.3-9.7,11.6-13.8c0.7-0.6,1.5-1.1,2.5-0.5
			c1.4,0.8,1.6,2.5,0.5,3.8c-3.3,3.5-6.5,7-9.8,10.6c-1.1,1.1-2,2.4-3.1,3.5c-0.4,0.4-0.6,0.7-1.5,0.7
			C82.5,93.5,82.1,92.7,81.9,92.1z"/>
		<path class="st22" d="M105.8,112.4c0.2-1.4,0.7-2.3,1.7-3.1c2.7-2.3,5.4-4.7,8.2-7c0.5-0.4,1-0.8,1.6-1c0.9-0.3,1.7-0.1,2.3,0.8
			c0.5,0.8,0.4,1.6-0.3,2.2c-3.5,3.2-4.9,4.4-8.4,7.6c-2.5,2.5-3.2,2.6-4.2,2.2C106.1,113.7,106,113.2,105.8,112.4z"/>
		<path class="st23" d="M80.9,84.4c-1.6,0-2-2.4-0.5-4.6c1-1.5,1.1-1.8,2.5-3.7c0.7-1.1,2.2-1.6,3.1-0.7c0.9,0.8,1.4,2.7,0.5,3.8
			C84.8,80.8,82.6,83.4,80.9,84.4z"/>
		<path class="st23" d="M116.3,114.3c0-1.3,1.7-3.6,2.9-4c0.3-0.1,1,0,1.1,0.4c0.4,0.6,0.7,1.1,0.7,1.8c-0.1,1.6-1.1,2.5-2.4,3.3
			C117,116.7,116.3,115.9,116.3,114.3z"/>
	</g>
</g>
</svg>
