<?xml version="1.0" encoding="utf-8"?>
<!-- Generator: Adobe Illustrator 19.2.0, SVG Export Plug-In . SVG Version: 6.00 Build 0)  -->
<svg version="1.1" id="beansandtoast_xA0_Image_1_" xmlns="http://www.w3.org/2000/svg" xmlns:xlink="http://www.w3.org/1999/xlink"
	 x="0px" y="0px" viewBox="0 0 1064 142.7" style="enable-background:new 0 0 1064 142.7;" xml:space="preserve">
<g>
	<g>
		<path d="M27.4,54.7C39.3,39.1,56.8,36.5,74.5,41c18.8,4.7,28.9,18.2,32.6,36.6c2.3,11.7,1.6,23.3-2.8,34.4
			c-12.3,31-53.1,38-75,12.9c-0.3-0.3-0.7-1-1.5-1.9c0,5,0,10.6,0,15.6c-8,0-15.8,0-23.8,0C3.9,93.2,3.9,47.8,3.9,1.8
			c7.9,0,15.5,0,23.5,0C27.4,19.6,27.4,37.1,27.4,54.7 M83.8,89.8c0.3-15.7-8.9-28-22.7-30.2c-12.7-2-23.9,3.1-29.7,13.6
			c-6.2,11.3-4.6,27.8,3.6,37c7.4,8.3,19.8,11.3,30.7,7.4C76.7,113.7,83.6,103.1,83.8,89.8z"/>
		<path d="M889.1,138.7c-7.6,0-15,0-22.9,0c0-3.6,0-7.2,0-11.5c-12.4,12.5-26.9,14.7-42.3,11.5c-16.9-3.5-26.5-18.4-23.4-35.2
			c1.7-9.2,7-16.2,15.7-19.1c7.3-2.5,15.2-3.5,22.9-4.1c8.7-0.7,19.5,0.5,28.2,0.5c0.2-11.5-4.7-17.6-13.7-20.2
			c-9.9-2.8-19.6-1.2-28.9,2.7c-3.3,1.4-6.5,3-10.2,4.8c-2.7-5.2-5.5-10.4-8.6-16c8.5-5,17.3-9,26.9-10.7c10.6-2,21.2-2.3,31.8,0.5
			c14.1,3.8,23.8,13.7,24.3,28.3C889.7,92.7,889.1,115.5,889.1,138.7z M867.6,96c-9.3,0-20.7-0.1-30.1,0.1c-2.4,0-4.7,0.5-6.9,1.1
			c-5.9,1.8-8.6,6-8,12.2c0.6,5.5,4.3,9.7,10.4,11.3c7.1,1.9,14,1,20.6-1.8C863.9,114.6,867.9,108.6,867.6,96z"/>
		<path d="M320.2,139.4c-8,0-15.3,0-23.1,0c0-3.5,0-6.9,0-11.2c-2.6,2.2-4.2,3.7-6.1,5.1c-11.8,8.9-33.3,10.1-45.9,2.4
			c-10.9-6.5-15.3-16.5-14.1-28.8c1.2-11.9,8.1-19.7,19.3-23c6.3-1.9,13.2-2.4,19.8-2.8c8.7-0.5,19.4,0.1,28,0.1
			c0-14.6-8.3-17.8-14-19.7c-9.6-2.8-18.9-1.2-27.9,2.4c-3.7,1.5-7.1,3.3-11.1,5.1c-2.8-5.2-5.4-10.4-8.4-16
			c11.6-7,23.9-11.8,37.5-11.9c7.8,0,15.9,0.5,23.3,2.6c13.1,3.7,20.9,13,22,26.7c0.9,11.9,0.6,24,0.7,35.9
			C320.3,117.2,320.2,127.9,320.2,139.4z M298.2,96.2c-11.4,0.5-24.9,0.8-36.1,1.7c-4.5,0.4-7.9,3.4-8.7,8.2
			c-0.9,5.3,0.3,10.1,5,12.9c9.6,5.8,19.3,4,28.6-0.8C295.4,113.8,298.7,108,298.2,96.2z"/>
		<path d="M218.4,97.8c-24.7,0-48.7,0-73.4,0c2.2,9.3,4.1,14.3,15.4,19.9c14.8,6.2,27.9,2.1,39.3-7.4c4.6,4,9,8,13.7,12.1
			c-5.9,7-13,11.3-20.9,14c-11.8,4.1-23.9,4.6-36,1.7c-25-6-39.6-29-35.8-56.2c3.7-26.4,23.9-43.4,51-42.8
			c15.5,0.3,29.4,4.3,38.4,18.3C218.2,69.6,219.1,83.3,218.4,97.8z M144.7,81.5c17.4,0,34.4,0,51.5,0c0.7-12.4-8.4-22.3-21.5-23.6
			C158.9,56.3,146.9,65.6,144.7,81.5z"/>
		<path d="M362,58.7c6.3-8.5,13.9-14.3,24-16.3c5-1,10.3-1.6,15.4-1.3c18.2,0.9,31.5,12.2,32.5,30.4c1.3,22.9,0.3,45.9,0.3,69.1
			c-7.6,0-15.3,0-23.6,0c0-1.9,0-3.6,0-5.4c0-15.8,0-31.7,0-47.5c-0.1-13.5-5.8-21.5-16.9-23.6c-12.7-2.5-24.7,3.7-29.1,15.6
			c-1.6,4.4-2.2,9.4-2.3,14.2c-0.3,15.5-0.1,30.9-0.1,46.8c-8,0-15.8,0-23.8,0c0-32.7,0-65.3,0-98.3c7.6,0,15.4,0,23.7,0
			C362,47.6,362,53.1,362,58.7z"/>
		<path d="M900.5,127c2.7-5.4,5.3-10.5,7.4-14.8c8.3,3.3,16,7,24.3,9.3c5.1,1.4,8.4,2.1,13.8,1.5c3.8-0.4,9.5-3.8,9.9-8.3
			c0.6-4.7-1.8-7.9-5.9-9.6c-5.3-2.2-10.9-3.9-16.2-5.9c-3.8-1.4-7.7-2.6-11.4-4.2c-10.7-4.6-17.2-12.2-17.1-24.4
			c0.1-12.3,5.7-21.1,17.1-25.5c19.3-7.6,37.6-3.8,55.6,6.2c-2.9,5.9-5.7,11.4-8.2,16.5c-7.2-2.4-14-5.4-21-7
			c-4.7-1-8.5-1.4-13.5-0.8c-3.4,0.4-7.3,3.6-7.7,7.3c-0.5,3.9,1.4,6.8,4.9,8.3c4.1,1.8,8.4,3.2,12.7,4.8c6,2.2,12.2,3.9,18,6.6
			c9.9,4.6,16,12.2,16.1,23.7c0.1,11.4-5,19.7-15,24.9C946.3,145.2,915.5,141.1,900.5,127z"/>
		<path d="M520.4,50.9c-3.2,6.2-5.8,11.6-8.3,16.5c-7.6-2.6-14.5-5.5-21.8-7.1c-4.7-1-11.5-0.9-15,0.6c-4.1,1.8-5.4,5.5-5.1,7.5
			c0.5,3.5,1.8,4.9,4,6.4c3.5,2.3,7.8,3.4,11.8,4.7c6.3,2.3,12.9,4,18.9,6.8c10.2,4.6,16.5,12.2,16.6,24
			c0.1,11.9-5.4,20.2-16.1,25.5c-18.1,8.9-47.7,4.7-63.1-9.2c2.6-5.2,5.2-10.6,8.1-16.3c9.1,6.9,18.8,10.9,29.8,11.6
			c3.7,0.3,7.6-0.2,11.2-1c3.7-0.8,6.5-3.2,6.8-7.4c0.3-4.1-1.7-7-5.3-8.7c-4.3-1.9-8.9-3.5-13.3-5.1c-5.5-2-11.3-3.6-16.7-6
			c-9.5-4.3-15.4-11.4-15.7-22.5c-0.3-11.3,3.9-20.3,14.2-25.6c15.4-7.9,29.3-7.8,44.2-1.7C509.9,45.7,516.2,48.8,520.4,50.9z"/>
		<path d="M654.6,52.5c0,18.5-0.2,36,0.1,53.5c0.1,7.7,5.5,11.7,13.4,10.5c4.5-0.6,8.8-2.3,13.8-3.8c1.9,6.3,3.9,12.8,6.1,19.6
			c-13.4,7.8-27.3,10.8-41.9,5.3c-12.5-4.8-17.9-15-18.1-28c-0.2-16.8-0.1-33.7-0.1-50.5c0-1.9,0-3.8,0-6.4c-5.2,0-10.1,0-15.3,0
			c0-6.7,0-12.9,0-19.6c4.8,0,9.6,0,15.2,0c0-10.3,0-20.1,0-30.2c9.1,0,17.5,0,26.7,0c0,9.8,0,19.6,0,30c10.8,0,21,0,31.5,0
			c0,6.7,0,12.8,0,19.5C675.4,52.5,665.3,52.5,654.6,52.5z"/>
		<path d="M1058.1,112.5c1.7,5.5,4.3,13.9,5.9,19.6c-1,0.6-1.6,0.8-2.7,1.4c-11.7,6.4-24,8.6-36.8,4.8c-12.7-3.8-20-14.3-20.3-29.1
			c-0.2-16.8-0.1-33.6-0.1-50.4c0-1.9,0-3.8,0-6c-5.3,0-10,0-15.3,0c0-6.6,0-12.8,0-19.6c4.8,0,9.7,0,15.2,0c0-10.3,0-20,0-30.1
			c9,0,17.4,0,26.3,0c0,9.8,0,19.4,0,29.8c10.7,0,21,0,31.6,0c0,6.8,0,12.9,0,19.7c-10.3,0-20.6,0-31.1,0c0,18.5-0.3,36.3,0.1,54.1
			c0.2,7.1,5.5,10.8,12.9,9.8C1048.6,115.6,1053.2,113.8,1058.1,112.5z"/>
		<path d="M566.9,85.9c10.7,10.2,19.8,20.2,30.1,30.2c3.6-5.9,5.6-13.8,7.4-24.9c0.9,0,3,0,5.1,0c-0.5,3.4-0.9,6.3-3.1,15.5
			c-1.8,6.1-2.7,7.7-5.7,13.5c1.2,1.1,1.8,1.9,2.8,2.8c4.6,5,10,11.3,15.1,16.8c-2.3,0-3.3,0-7,0c-2.6-3.3-10.4-11.8-13.8-15
			c-2.3,3.1-4.9,5.5-6.2,6.6c-3.8,2.8-10,6.2-17.7,7.7c-2.8,0.6-11.1,1.9-21.7-2.3c-16.9-6.8-21.4-25.6-9.5-39.4
			c4.1-4.8,10-7.9,15.4-12.2c-2.5-3-6.3-7.3-8.8-10.8c-8-11-7.1-21.8,2.6-29.3s25.5-6.7,33.2,2c5,5.6,6.3,13.1,2.4,19.5
			c-2.7,4.3-3.8,5.9-10.3,11.6C573,81.7,570.8,83,566.9,85.9z M594.2,121c-9.9-10-20.5-20-32.2-31.7c-8.8,6-12,8.7-16,14.3
			c-6.7,9.3-3.5,21.1,6.4,26.9C565.7,138.4,585.3,134.1,594.2,121z M563.1,81.9c5.7-4.6,11.2-8.2,15.8-12.8c8.3-8.2,4.6-20.4-6.7-23
			c-5.6-1.3-11-0.4-15.8,3c-6.5,4.6-8.2,12.3-3.9,18.9C555.4,72.7,559.1,76.9,563.1,81.9z"/>
	</g>
</g>
<path d="M794.2,90.8c0,27.9-22.7,50.6-50.6,50.6c-28,0-50.6-22.7-50.6-50.6s22.7-50.6,50.6-50.6C771.5,40.2,794.2,62.8,794.2,90.8z
	 M743.6,59.6c-15.3,0-27.8,13.3-27.8,29.7s12.4,30.6,27.8,30.6c16.6,0,28.9-14.4,28.9-30.8S758.9,59.6,743.6,59.6z"/>
</svg>
